<svg xmlns="http://www.w3.org/2000/svg" xmlns:xlink="http://www.w3.org/1999/xlink" width="200" height="200" version="1.1" viewBox="0 0 200 200"><title>arrow-brand-error</title><desc>Created with Sketch.</desc><g id="Arrow-Website" fill="none" fill-rule="evenodd" stroke="none" stroke-width="1"><g id="arrow-ilust-sketch-copy" transform="translate(4.000000, 4.000000)"><g id="image"><polyline id="path" stroke="#263238" stroke-width="3" points="125.327 158.409 96 176 67.332 158.799"/><path id="path" fill="#F5F7F8" stroke="#263238" stroke-width="3" d="M0,192 L96,0 L192,192 L96,144 L0,192 Z"/><polygon id="path-copy-2" fill="#263238" points="96 0 96 144 192 192" opacity=".1"/><polygon id="Path-5" fill="#000" fill-opacity=".1" points="96 176 96 144 124.195 158.409"/><polygon id="Path-5-Copy" fill="#000" fill-opacity=".1" points="96 153.476 96 144 124.195 158.409 120.444 161.034"/><polygon id="Path-5-Copy-2" fill="#000" fill-opacity=".1" points="68 153.476 68 144 96 158.409 91.615 161.561" transform="translate(82.000000, 152.780640) scale(-1, 1) translate(-82.000000, -152.780640)"/><polygon id="Path-18" fill="#263238" fill-opacity=".1" points="54.638 165.395 0 192 67.332 173.093 96.5 190.269 124.502 173.778 192 192 138.738 165.395 124.195 158.409 96.688 176 67.332 158.409"/></g></g></g></svg>