<svg xmlns="http://www.w3.org/2000/svg" xmlns:xlink="http://www.w3.org/1999/xlink" width="96" height="107" version="1.1" viewBox="0 0 96 107"><title>1D529572-0E03-4E3B-B088-5641C8D16165</title><desc>Created with sketchtool.</desc><defs><linearGradient id="linearGradient-1" x1="50%" x2="50%" y1="9.975%" y2="99.779%"><stop offset="0%" stop-color="#CE1010"/><stop offset="99.918%" stop-color="#9D1212"/></linearGradient><linearGradient id="linearGradient-2" x1="50%" x2="50%" y1="9.63%" y2="99.714%"><stop offset="0%" stop-color="#F63F18"/><stop offset="99.937%" stop-color="#950F0F"/></linearGradient><linearGradient id="linearGradient-3" x1="50%" x2="50%" y1="-7.625%" y2="76.062%"><stop offset="0%" stop-color="#132532"/><stop offset="100%" stop-color="#132532" stop-opacity="0"/></linearGradient><linearGradient id="linearGradient-4" x1="50%" x2="50%" y1="0%" y2="91.609%"><stop offset="0%" stop-color="#E5E5E5"/><stop offset="100%" stop-color="#FFF"/></linearGradient></defs><g id="Arrow-Website" fill="none" fill-rule="evenodd" stroke="none" stroke-width="1"><g id="Arrow-Meta-Hover" transform="translate(-115.000000, -98.000000)"><g id="sidebar" transform="translate(0.000000, 40.000000)"><g id="logos/arrow-meta/color" transform="translate(103.000000, 58.000000)"><polygon id="Path-Copy" fill="url(#linearGradient-1)" points="60 0 12 96 61.835 71.125"/><polygon id="Path-Copy-2" fill="url(#linearGradient-2)" points="108 0 60 96 108 72" transform="translate(84.000000, 48.000000) scale(-1, 1) translate(-84.000000, -48.000000)"/><rect id="bound-copy" width="28" height="28" x="46" y="56" opacity=".262"/><polygon id="Path-5-Copy-5" fill="url(#linearGradient-3)" fill-opacity=".7" points="12 96 60.003 72 108 96 60 117.773"/><polygon id="Path-Copy" fill="#FFF" points="60.079 48 36 96 61 83.563"/><polygon id="Path-Copy-2" fill="url(#linearGradient-4)" points="84 48 60 96 84 84" transform="translate(72.000000, 72.000000) scale(-1, 1) translate(-72.000000, -72.000000)"/></g></g></g></g></svg>